<svg width="97" height="36" viewBox="0 0 97 36" fill="none" xmlns="http://www.w3.org/2000/svg">
<path d="M4.65909 35H0.227273L13.0455 0.0909081H17.4091L30.2273 35H25.7955L15.3636 5.61364H15.0909L4.65909 35ZM6.29545 21.3636H24.1591V25.1136H6.29545V21.3636ZM58.5739 0.0909081H62.8011V23.2045C62.8011 25.5909 62.2386 27.7216 61.1136 29.5966C60 31.4602 58.4261 32.9318 56.392 34.0114C54.358 35.0795 51.9716 35.6136 49.233 35.6136C46.4943 35.6136 44.108 35.0795 42.0739 34.0114C40.0398 32.9318 38.4602 31.4602 37.3352 29.5966C36.2216 27.7216 35.6648 25.5909 35.6648 23.2045V0.0909081H39.892V22.8636C39.892 24.5682 40.267 26.0852 41.017 27.4148C41.767 28.733 42.8352 29.7727 44.2216 30.5341C45.6193 31.2841 47.2898 31.6591 49.233 31.6591C51.1761 31.6591 52.8466 31.2841 54.2443 30.5341C55.642 29.7727 56.7102 28.733 57.4489 27.4148C58.1989 26.0852 58.5739 24.5682 58.5739 22.8636V0.0909081ZM73.2884 0.0909081L82.2884 14.6136H82.5611L91.5611 0.0909081H96.5384L85.5611 17.5455L96.5384 35H91.5611L82.5611 20.75H82.2884L73.2884 35H68.3111L79.5611 17.5455L68.3111 0.0909081H73.2884Z" fill="#123386"/>
</svg>
